<?xml version="1.0" standalone="no"?>
<!DOCTYPE svg PUBLIC "-//W3C//DTD SVG 20010904//EN"
 "http://www.w3.org/TR/2001/REC-SVG-20010904/DTD/svg10.dtd">
<svg version="1.0" xmlns="http://www.w3.org/2000/svg"
 width="1448.000000pt" height="1086.000000pt" viewBox="0 0 1448.000000 1086.000000"
 preserveAspectRatio="xMidYMid meet">

<g transform="translate(0.000000,1086.000000) scale(0.100000,-0.100000)"
fill="#000000" stroke="none">
<path d="M1618 6893 l-88 -4 0 -442 c0 -342 4 -457 14 -509 38 -177 144 -297
324 -367 l67 -26 407 -3 408 -3 2 -302 3 -302 145 -35 145 -36 3 563 c1 310 6
563 10 563 4 -1 25 -26 46 -58 162 -238 446 -663 560 -840 76 -117 142 -215
147 -218 7 -4 268 62 277 71 2 2 -157 243 -353 536 -328 487 -357 534 -345
553 16 26 545 780 577 822 l23 31 -146 6 c-80 3 -151 4 -157 1 -13 -5 -73 -89
-359 -499 -231 -332 -262 -374 -270 -375 -5 0 -8 198 -8 441 l0 441 -147 -4
-148 -4 -3 -537 -2 -537 -63 -1 c-299 -2 -649 4 -680 12 -21 6 -57 27 -79 47
-75 67 -73 53 -76 562 l-3 456 -72 0 c-40 0 -111 -2 -159 -3z"/>
<path d="M4007 6893 c-3 -5 116 -275 264 -602 l268 -593 -59 -147 c-32 -80
-98 -240 -145 -356 -47 -115 -87 -214 -88 -220 -1 -6 52 -10 142 -10 l145 0
118 285 c65 157 141 339 168 405 27 66 99 239 160 385 234 557 350 839 350
850 0 8 -45 10 -151 8 l-150 -3 -155 -380 c-86 -209 -163 -399 -172 -422 -9
-24 -19 -43 -22 -43 -5 0 -312 667 -369 803 l-20 47 -140 0 c-77 0 -142 -3
-144 -7z"/>
<path d="M6493 6488 c4 -440 6 -459 69 -597 155 -345 601 -461 1333 -346 83
13 165 27 183 31 l32 7 0 -317 0 -316 183 2 182 3 0 965 0 965 -182 3 -183 2
0 -499 0 -499 -48 -11 c-187 -40 -342 -55 -582 -55 -267 -1 -308 4 -417 55
-83 40 -146 110 -175 197 -21 64 -22 87 -26 440 l-3 372 -186 0 -185 0 5 -402z"/>
<path d="M9130 5920 l0 -970 180 0 180 0 0 369 0 369 28 6 c15 3 119 21 232
40 113 20 219 38 235 41 29 6 37 -2 270 -286 132 -160 285 -347 340 -415 l100
-124 228 0 c177 0 226 3 221 12 -4 7 -107 132 -229 278 -121 146 -316 381
-434 523 l-213 258 370 377 c204 207 393 399 421 427 28 27 51 53 51 57 0 4
-105 8 -233 8 l-234 0 -324 -337 c-179 -186 -358 -373 -399 -416 l-75 -77
-150 -25 c-82 -14 -162 -25 -177 -25 l-28 0 0 440 0 440 -180 0 -180 0 0 -970z"/>
<path d="M11490 6885 c0 -7 281 -453 570 -905 135 -212 264 -414 285 -448 l39
-64 -24 -45 c-41 -78 -78 -122 -122 -145 -37 -20 -57 -23 -143 -22 l-100 0
-42 -145 c-23 -80 -40 -147 -38 -149 12 -12 169 -23 265 -19 215 9 334 81 455
277 55 87 935 1656 935 1665 0 3 -89 5 -198 5 l-199 0 -145 -267 c-284 -525
-443 -813 -449 -813 -4 0 -33 42 -65 93 -184 294 -535 862 -569 919 l-40 68
-207 0 c-115 0 -208 -2 -208 -5z"/>
<path d="M1330 4826 l0 -364 418 -5 c445 -5 570 -14 811 -63 317 -63 646 -216
713 -331 l20 -33 128 0 128 0 23 36 c42 68 214 175 386 240 144 54 373 104
613 135 47 6 273 13 503 16 l417 5 0 364 0 364 -125 0 -125 0 -2 -230 -3 -230
-320 -4 c-283 -3 -339 -6 -487 -29 -426 -66 -770 -203 -953 -380 l-55 -53 -42
43 c-143 146 -464 291 -788 356 -249 51 -355 60 -690 63 l-315 2 -3 231 -2
231 -125 0 -125 0 0 -364z"/>
<path d="M10967 4556 c-3 -7 -23 -16 -44 -19 -81 -13 -113 -63 -113 -177 0
-63 3 -73 29 -102 26 -29 35 -33 81 -33 44 0 55 4 75 27 55 64 35 169 -37 196
-32 12 -41 12 -69 -2 -37 -19 -39 -19 -39 -7 0 22 39 53 80 62 52 12 70 25 70
50 0 22 -25 26 -33 5z m-1 -157 c42 -46 12 -139 -45 -139 -14 0 -31 4 -37 8
-19 12 -34 49 -34 81 0 62 75 95 116 50z"/>
<path d="M9330 4546 c0 -21 39 -46 71 -46 26 0 59 27 59 48 0 17 -27 15 -34
-3 -3 -8 -16 -15 -30 -15 -13 0 -26 7 -30 15 -7 19 -36 20 -36 1z"/>
<path d="M6472 4475 c5 -104 21 -120 125 -121 l77 -1 -3 -62 c-2 -60 -2 -61
23 -61 l26 0 0 160 c0 153 -1 160 -20 160 -18 0 -20 -7 -20 -67 0 -38 -4 -74
-9 -82 -5 -8 -29 -14 -64 -15 -74 -1 -88 13 -94 98 -5 57 -8 66 -25 66 -19 0
-20 -6 -16 -75z"/>
<path d="M6870 4350 l0 -120 24 0 c20 0 34 16 78 87 l53 87 3 -87 c3 -79 5
-87 22 -87 19 0 20 7 20 120 0 118 0 120 -22 120 -18 0 -36 -20 -78 -88 l-55
-87 -3 88 c-3 79 -5 87 -22 87 -19 0 -20 -7 -20 -120z"/>
<path d="M7195 4459 c-4 -6 -4 -13 0 -17 6 -7 11 -8 53 -10 21 -2 22 -5 22
-102 l0 -100 26 0 25 0 -2 94 c-1 51 1 99 5 105 4 6 23 11 42 11 24 0 34 5 34
15 0 12 -18 15 -99 15 -60 0 -102 -4 -106 -11z"/>
<path d="M7532 4443 c-25 -25 -25 -27 -7 -33 14 -5 26 -1 38 11 33 35 97 15
97 -30 0 -15 -10 -19 -57 -23 -46 -4 -61 -10 -80 -33 -25 -28 -25 -63 -1 -92
17 -21 74 -26 107 -10 17 9 31 11 31 6 0 -5 9 -9 20 -9 19 0 20 7 20 95 0 88
-2 98 -25 120 -35 36 -106 35 -143 -2z m128 -121 c0 -29 -29 -62 -55 -62 -38
0 -55 11 -55 36 0 29 24 43 73 44 29 0 37 -4 37 -18z"/>
<path d="M7876 4424 c-3 -26 -6 -66 -6 -90 0 -40 -18 -74 -41 -74 -5 0 -9 -7
-9 -15 0 -22 44 -19 65 5 13 15 20 42 23 99 l4 79 40 4 c21 2 41 2 44 -1 2 -2
4 -49 4 -103 0 -91 1 -98 20 -98 19 0 20 7 20 120 l0 120 -79 0 -78 0 -7 -46z"/>
<path d="M8190 4350 l0 -120 75 0 c91 0 115 17 115 80 0 49 -28 71 -101 78
l-49 5 0 38 c0 32 -3 39 -20 39 -19 0 -20 -7 -20 -120z m138 -12 c18 -18 14
-56 -7 -68 -11 -5 -36 -10 -55 -10 -36 0 -36 0 -36 45 l0 45 43 0 c24 0 48 -5
55 -12z"/>
<path d="M8520 4351 c0 -113 1 -121 19 -121 17 0 20 8 23 53 l3 52 55 0 55 0
-3 -52 c-4 -51 -3 -53 22 -53 l27 0 -3 117 c-3 101 -5 118 -20 121 -14 3 -17
-6 -20 -45 l-3 -48 -57 -3 -57 -3 -3 48 c-2 36 -7 49 -20 51 -16 3 -18 -8 -18
-117z"/>
<path d="M8860 4350 l0 -120 75 0 c67 0 79 3 100 25 30 30 32 64 4 99 -18 22
-28 26 -74 26 l-54 0 -7 45 c-5 35 -10 45 -25 45 -18 0 -19 -9 -19 -120z m144
-16 c35 -34 6 -74 -55 -74 l-39 0 0 45 0 45 39 0 c23 0 46 -7 55 -16z"/>
<path d="M9107 4464 c-4 -4 -7 -58 -7 -121 l0 -113 25 0 26 0 -3 117 c-2 97
-6 118 -18 121 -9 1 -19 0 -23 -4z"/>
<path d="M9300 4468 c-1 -2 -3 -56 -6 -120 l-5 -118 28 0 c24 0 35 11 78 80
27 44 53 80 57 80 5 0 8 -36 8 -80 0 -73 2 -80 20 -80 19 0 20 7 20 120 0 120
0 120 -24 120 -19 0 -34 -17 -77 -87 l-54 -88 -3 88 c-3 79 -5 87 -22 87 -11
0 -20 -1 -20 -2z"/>
<path d="M9838 4463 c-3 -4 -6 -59 -7 -120 l-3 -113 26 0 c25 0 26 3 26 50 0
65 15 65 66 0 31 -38 45 -49 68 -50 l29 0 -24 28 c-13 15 -37 41 -53 59 l-29
32 46 55 c26 30 47 57 47 60 0 3 -10 6 -22 6 -15 -1 -36 -18 -61 -50 -49 -64
-65 -64 -69 -3 -2 35 -7 49 -20 51 -9 2 -18 -1 -20 -5z"/>
<path d="M10194 4380 c-6 -79 -10 -93 -30 -109 -30 -24 -31 -41 -1 -41 41 0
59 32 70 125 l10 85 39 0 38 0 0 -105 c0 -98 1 -105 20 -105 19 0 20 7 20 120
l0 120 -79 0 -79 0 -8 -90z"/>
<path d="M10492 4458 c70 -191 82 -236 70 -262 -6 -15 -20 -26 -31 -26 -19 0
-35 -23 -24 -34 14 -13 51 -5 71 17 15 16 122 290 122 314 0 3 -9 3 -20 1 -16
-2 -28 -22 -50 -87 -16 -46 -31 -86 -33 -87 -2 -2 -17 35 -34 84 -25 72 -34
88 -53 90 -16 3 -21 0 -18 -10z"/>
<path d="M11320 4467 c0 -2 18 -53 41 -113 22 -60 41 -119 41 -131 1 -29 -19
-53 -43 -53 -12 0 -19 -7 -19 -20 0 -13 7 -20 19 -20 33 0 51 11 68 44 13 24
103 281 103 293 0 2 -8 3 -19 3 -13 0 -24 -16 -40 -59 -11 -32 -21 -61 -21
-64 0 -3 -5 -18 -11 -34 -11 -27 -12 -25 -43 62 -25 74 -35 91 -53 93 -13 2
-23 1 -23 -1z"/>
<path d="M11650 4350 c0 -113 1 -120 20 -120 18 0 20 7 20 75 0 41 4 75 8 75
5 0 22 -33 38 -72 42 -102 60 -103 104 -3 18 41 36 75 39 75 4 0 5 -34 3 -75
l-4 -75 26 0 26 0 0 120 c0 120 0 120 -24 120 -29 0 -34 -6 -77 -102 -19 -43
-36 -77 -39 -78 -3 0 -23 41 -44 90 -36 83 -41 90 -67 90 l-29 0 0 -120z"/>
<path d="M12077 4463 c-4 -3 -7 -57 -7 -120 l0 -113 25 0 c23 0 25 3 25 50 0
54 -5 51 73 53 32 1 32 0 35 -51 3 -44 6 -52 23 -52 18 0 19 8 19 121 0 109
-2 120 -17 117 -14 -2 -19 -15 -21 -51 l-3 -48 -57 3 -57 3 -3 48 c-3 44 -16
59 -35 40z"/>
<path d="M12420 4350 c0 -118 0 -120 23 -120 17 0 32 16 62 65 75 123 74 123
75 23 0 -81 2 -88 20 -88 19 0 20 7 20 120 0 118 0 120 -23 120 -17 0 -35 -20
-77 -86 l-55 -86 -3 86 c-3 78 -5 86 -22 86 -19 0 -20 -7 -20 -120z"/>
<path d="M12757 4463 c-11 -10 -8 -80 4 -107 15 -31 56 -49 106 -44 l38 3 3
-42 c3 -35 7 -43 23 -43 19 0 19 6 17 117 -3 103 -5 118 -20 121 -15 3 -18 -5
-18 -53 0 -50 -2 -56 -26 -65 -57 -22 -94 11 -94 86 0 32 -16 45 -33 27z"/>
<path d="M13127 4459 c-47 -28 -64 -144 -27 -191 40 -52 126 -61 165 -18 26
29 6 49 -26 26 -13 -9 -36 -16 -51 -16 -33 0 -71 34 -66 58 3 14 18 18 87 20
l84 3 -6 42 c-8 56 -43 87 -100 87 -23 0 -50 -5 -60 -11z m100 -41 c40 -37 30
-48 -42 -48 -36 0 -65 4 -65 9 0 19 43 61 63 61 11 0 31 -10 44 -22z"/>
<path d="M13420 4350 c0 -113 1 -120 20 -120 17 0 20 7 20 50 0 66 22 66 73 0
28 -36 45 -50 63 -50 29 0 27 4 -29 72 l-40 48 47 60 c45 57 46 60 23 60 -16
0 -37 -15 -66 -50 -23 -27 -49 -50 -57 -50 -10 0 -14 13 -14 50 0 43 -3 50
-20 50 -19 0 -20 -7 -20 -120z"/>
</g>
</svg>
