<?xml version="1.0" standalone="no"?>
<!DOCTYPE svg PUBLIC "-//W3C//DTD SVG 20010904//EN"
 "http://www.w3.org/TR/2001/REC-SVG-20010904/DTD/svg10.dtd">
<svg version="1.0" xmlns="http://www.w3.org/2000/svg"
 width="1254.000000pt" height="1254.000000pt" viewBox="0 0 1254.000000 1254.000000"
 preserveAspectRatio="xMidYMid meet">

<g transform="translate(0.000000,1254.000000) scale(0.100000,-0.100000)"
fill="#000000" stroke="none">
<path d="M5995 9919 c-355 -22 -710 -96 -1040 -216 l-160 -57 -250 -1 c-259 0
-312 5 -547 51 -168 32 -338 82 -494 144 -70 27 -135 50 -145 50 -35 0 -42
-35 -24 -118 56 -248 197 -537 373 -762 l50 -64 -25 -49 c-124 -246 -217 -627
-230 -947 -15 -393 68 -732 259 -1052 l22 -38 -30 -32 c-76 -81 -195 -260
-261 -393 -238 -474 -276 -1053 -107 -1613 200 -661 636 -1268 1168 -1625 69
-47 283 -171 308 -179 5 -2 1 -21 -8 -43 -22 -53 -30 -187 -14 -244 7 -26 26
-59 45 -78 29 -29 40 -33 84 -33 76 0 113 36 146 145 40 133 81 162 106 73 33
-124 45 -153 74 -184 27 -28 40 -34 75 -34 63 0 101 43 134 151 14 47 33 94
40 105 15 19 15 19 35 -1 10 -11 33 -60 50 -109 17 -49 41 -100 53 -113 43
-45 123 -48 170 -6 22 20 58 85 58 105 0 10 72 13 354 13 l353 0 17 -47 c23
-66 64 -98 128 -98 69 0 108 39 137 136 25 82 55 134 76 134 9 0 22 -24 35
-72 45 -153 79 -198 152 -198 67 0 93 36 145 204 10 33 23 61 30 63 21 7 53
-40 73 -107 36 -118 77 -163 152 -162 83 1 129 67 135 191 4 68 -7 137 -31
191 -4 11 18 27 90 64 216 110 437 279 649 497 160 164 229 250 354 439 240
362 392 740 463 1155 29 170 31 532 5 690 -35 204 -85 366 -169 546 -72 153
-194 343 -281 436 l-29 31 52 90 c147 256 217 513 227 842 6 199 -5 348 -44
545 -29 153 -106 393 -166 520 l-43 90 80 107 c150 198 260 420 323 651 47
172 36 208 -51 175 -23 -9 -88 -34 -146 -56 -326 -126 -686 -188 -1044 -179
l-201 4 -172 61 c-189 67 -295 97 -478 136 -351 73 -721 99 -1090 75z m-855
-955 c265 -50 493 -176 706 -388 142 -143 240 -283 335 -481 35 -71 67 -133
73 -137 20 -13 38 9 75 94 134 303 352 566 596 723 246 157 544 234 801 205
437 -48 774 -310 906 -705 59 -179 80 -381 58 -565 -84 -686 -705 -1231 -1530
-1345 -69 -10 -131 -23 -138 -29 -26 -24 -1 -46 82 -70 126 -38 200 -49 351
-49 236 -1 389 35 685 160 8 4 -14 -24 -49 -62 -480 -516 -711 -1127 -670
-1770 17 -274 82 -596 175 -866 l44 -130 -59 -72 c-94 -115 -254 -257 -289
-257 -10 0 -37 -10 -62 -21 l-44 -20 -61 27 c-49 23 -74 28 -140 28 -69 0 -90
-4 -147 -31 -80 -38 -147 -102 -182 -177 l-25 -54 -117 -12 c-113 -12 -464 -8
-571 6 -39 6 -44 10 -66 58 -70 148 -237 236 -391 206 -33 -7 -77 -20 -98 -31
-36 -18 -38 -18 -80 0 -24 10 -56 21 -72 25 -55 13 -238 178 -320 288 l-28 37
46 138 c114 338 176 695 176 1011 0 583 -222 1120 -663 1606 -39 44 -65 77
-57 74 181 -74 241 -95 338 -119 214 -54 458 -57 647 -9 114 29 147 46 143 72
-3 21 -12 24 -123 39 -637 91 -1128 396 -1395 867 -183 325 -216 740 -85 1088
180 480 690 749 1225 648z"/>
<path d="M4920 8247 c-183 -63 -314 -221 -342 -413 -22 -155 25 -303 134 -420
76 -81 186 -138 297 -155 308 -46 582 193 581 506 -1 142 -48 254 -149 356
-106 106 -212 149 -365 149 -68 0 -108 -6 -156 -23z m353 -221 c43 -17 94 -77
106 -123 28 -105 -58 -212 -172 -213 -143 -1 -227 164 -141 277 48 63 137 89
207 59z"/>
<path d="M7288 8247 c-183 -63 -312 -221 -340 -415 -23 -160 28 -308 146 -428
79 -79 149 -117 254 -140 85 -17 120 -17 207 1 387 81 538 552 271 844 -55 60
-146 117 -224 141 -92 29 -225 27 -314 -3z m91 -217 c70 -20 121 -90 121 -165
0 -115 -98 -193 -215 -171 -40 8 -99 55 -121 97 -18 36 -18 112 0 147 42 81
128 117 215 92z"/>
<path d="M6191 7594 c-64 -32 -151 -115 -180 -172 -77 -151 -62 -279 64 -537
70 -143 156 -282 180 -291 9 -4 25 2 36 12 50 45 198 323 245 459 22 63 28 99
28 170 1 86 -1 96 -37 167 -41 85 -108 153 -189 194 -60 30 -82 30 -147 -2z"/>
</g>
</svg>
